<svg width="136" height="49" viewBox="0 0 136 49" fill="none" xmlns="http://www.w3.org/2000/svg">
<path opacity="0.8" d="M2.70328 23.114C2.89512 22.2656 3.06653 20.7437 2.56027 18.3999C2.05401 16.056 1.96207 13.0255 9.11002 11.9661C16.258 10.9066 22.5517 10.3787 24.7203 10.1444C26.889 9.91007 46.5836 6.44782 56.8004 6.13788C67.0172 5.82793 124.221 -1.97404 129.101 1.07973C133.004 3.52275 131.191 7.81313 129.796 9.65294C130.964 12.3137 128.438 15.0866 128.438 15.0866C130.252 15.1439 133.991 15.963 134.424 18.7809C134.966 22.3033 133.749 25.205 131.818 26.1061C130.569 26.689 130.071 26.6983 129.923 26.5916C130.756 28.0711 131.752 31.3002 129.419 33.0881C126.476 35.3431 118.162 35.7847 110.837 36.1738L110.584 36.1872C103.198 36.5798 73.2558 39.3418 63.0798 40.9986C52.9039 42.6555 34.8973 44.3814 32.9409 44.4407C30.9845 44.5001 17.3509 46.9358 14.0903 47.0348C10.8296 47.1337 5.88607 49.1373 2.97843 46.5293C0.652316 44.4429 1.70426 40.389 2.52099 38.6229C-2.71373 31.03 6.5927 29.3996 6.5927 29.3996C5.05751 28.9968 2.13036 27.1757 2.70328 23.114Z" fill="#FFCE30"/>
</svg>
