<svg width="160" height="160" viewBox="0 0 160 160" fill="none" xmlns="http://www.w3.org/2000/svg">
<path d="M32.9819 44.6288C32.9819 39.9469 33.7242 35.9216 35.2087 32.5529C36.7503 29.1271 38.5488 26.5293 40.6043 24.7593H118.969C121.025 26.9289 122.88 30.1549 124.536 34.4371C126.192 38.7193 127.02 44.0007 127.02 50.2813C127.02 53.7642 126.82 56.2765 126.42 57.8181C126.078 59.3026 125.706 60.5587 125.307 61.5864C124.907 62.6142 124.507 63.699 124.108 64.8409C118.055 73.4054 110.433 82.0269 101.241 90.7056C92.9617 90.9911 86.7952 91.7048 82.7414 92.8467C78.7447 93.9315 76.7463 95.2733 76.7463 96.872C76.7463 97.5571 77.0318 98.2137 77.6027 98.8418C80.4005 97.6428 84.2259 96.6436 89.0791 95.8442C93.9894 94.9878 98.7284 94.5596 103.296 94.5596H122.566C126.392 101.354 128.304 107.777 128.304 113.83C128.304 119.882 126.963 124.507 124.279 127.704C121.595 130.901 118.255 133.014 114.259 134.042C111.347 134.841 107.721 135.241 103.382 135.241H40.6043C34.6663 129.074 31.6973 119.425 31.6973 106.293C31.6973 103.381 31.9827 100.669 32.5537 98.1566C37.6353 92.1044 43.5733 85.4527 50.3678 78.2015C57.1622 70.9502 63.557 64.4698 69.5521 58.7602C69.3238 57.504 68.553 56.876 67.2397 56.876C66.4404 56.876 65.3556 57.4184 63.9853 58.5032C62.6149 59.5881 60.5024 61.6721 57.6476 64.7553H39.234C35.066 58.1892 32.9819 51.4804 32.9819 44.6288Z" fill="white"/>
</svg>
